<svg xmlns="http://www.w3.org/2000/svg" version="1.1" xmlns:xlink="http://www.w3.org/1999/xlink" xmlns:svgjs="http://svgjs.dev/svgjs" width="2000" height="1247" viewBox="0 0 2000 1247"><g transform="matrix(1,0,0,1,-1.2121212121212466,0.504858299595071)"><svg viewBox="0 0 396 247" data-background-color="#f9f9f9" preserveAspectRatio="xMidYMid meet" height="1247" width="2000" xmlns="http://www.w3.org/2000/svg" xmlns:xlink="http://www.w3.org/1999/xlink"><g id="tight-bounds" transform="matrix(1,0,0,1,0.2400000000000091,-0.09999999999999432)"><svg viewBox="0 0 395.52 247.2" height="247.2" width="395.52"><g><svg></svg></g><g><svg viewBox="0 0 395.52 247.2" height="247.2" width="395.52"><g transform="matrix(1,0,0,1,143.54365930599369,47.215199999999996)"><svg viewBox="0 0 108.4326813880126 152.7696" height="152.7696" width="108.4326813880126"><g><svg viewBox="0 0 108.4326813880126 152.7696" height="152.7696" width="108.4326813880126"><g><svg viewBox="0 0 108.4326813880126 152.7696" height="152.7696" width="108.4326813880126"><g><svg viewBox="0 0 108.4326813880126 152.7696" height="152.7696" width="108.4326813880126"><g id="textblocktransform"><svg viewBox="0 0 108.4326813880126 152.7696" height="152.7696" width="108.4326813880126" id="textblock"><g><svg viewBox="0 0 108.4326813880126 152.7696" height="152.7696" width="108.4326813880126"><g transform="matrix(1,0,0,1,0,0)"><svg width="108.4326813880126" viewBox="0.65 -31.55 22.5 31.7" height="152.7696" data-palette-color="#030303"><path d="M5.55-8.3Q5.55-6 6.2-4.98 6.85-3.95 8.25-3.95L8.25-3.95Q11.75-3.95 13.03-6.8 14.3-9.65 14.3-14.6L14.3-14.6Q14.3-17 14-21.3L14-21.3Q13.7-25.4 13.7-27.4L13.7-27.4Q8.35-27.4 8.35-29.5L8.35-29.5Q8.35-30.75 8.78-31.15 9.2-31.55 10.1-31.55L10.1-31.55Q10.65-31.55 11.3-31.48 11.95-31.4 12.25-31.4L12.25-31.4Q13.25-31.25 14.15-31.25L14.15-31.25Q15.8-31.25 17.2-31.4L17.2-31.4Q19-31.5 19.9-31.5L19.9-31.5Q21.7-31.5 22.43-31.15 23.15-30.8 23.15-29.8L23.15-29.8Q23.15-28.75 22.63-28.33 22.1-27.9 21.1-27.7L21.1-27.7 18.8-27.45Q18.75-24.15 19.2-19.55L19.2-19.55Q19.25-18.85 19.4-16.93 19.55-15 19.55-13.4L19.55-13.4Q19.55-6.9 16.8-3.38 14.05 0.15 8.6 0.15L8.6 0.15Q5.2 0.15 2.93-1.83 0.65-3.8 0.65-7.75L0.65-7.75Q0.65-8.85 1.45-9.53 2.25-10.2 3.6-10.2L3.6-10.2Q4.55-10.2 5.05-9.55 5.55-8.9 5.55-8.3L5.55-8.3Z" opacity="1" transform="matrix(1,0,0,1,0,0)" fill="#ffffff" class="wordmark-text-0" data-fill-palette-color="primary" id="text-0"></path></svg></g></svg></g></svg></g></svg></g></svg></g></svg></g></svg></g><path d="M325.845 41.215L325.845 0 78.645 0 78.645 247.2 325.845 247.2 325.845 205.985 312.068 205.985 312.068 233.423 92.422 233.423 92.422 13.777 312.068 13.777 312.068 41.215Z" fill="#ffffff" stroke="transparent" data-fill-palette-color="tertiary"></path></svg></g><defs></defs></svg><rect width="395.52" height="247.2" fill="none" stroke="none" visibility="hidden"></rect></g></svg></g></svg>